<svg width="40" height="40" viewBox="0 0 40 40" fill="none" xmlns="http://www.w3.org/2000/svg">
<path d="M14.5 14.4999L20 5.99991L25.5 14.4999L35.5 16.9999L28.5 24.4999L29.5 34.9999L20 30.4999L10 34.9999L11 24.4999L4 16.9999L14.5 14.4999Z" fill="#F9F9F9"/>
<path fill-rule="evenodd" clip-rule="evenodd" d="M9.0348 34.5C9.4748 35.3217 10.3331 35.835 11.2665 35.8333C11.6598 35.835 12.0498 35.7433 12.3998 35.5667L19.9865 31.6C20.0065 31.5883 20.0298 31.5817 20.0531 31.5833L27.5881 35.5167C27.9531 35.7133 28.3615 35.815 28.7748 35.8133C28.9065 35.8133 29.0398 35.8017 29.1698 35.7833C30.5265 35.5617 31.4531 34.2917 31.2531 32.9333L29.7865 24.5833C29.778 24.5712 29.7757 24.5705 29.775 24.5691C29.7748 24.5686 29.7748 24.568 29.7748 24.5667C29.7748 24.5617 29.7865 24.55 29.7865 24.55L35.9031 18.6333C36.8065 17.7617 36.9215 16.3567 36.1698 15.35C35.7615 14.8233 35.1631 14.4767 34.5031 14.3833L26.0665 13.1667C26.0515 13.1667 26.0348 13.15 26.0181 13.1333L22.2498 5.56666C21.8248 4.71166 20.9548 4.17166 19.9998 4.16666C19.7231 4.16666 19.4465 4.20999 19.1831 4.29999C18.5515 4.51499 18.0298 4.96832 17.7331 5.56666L13.9698 13.1117C13.9698 13.1467 13.9348 13.1617 13.9015 13.1617L5.4848 14.3783C4.9698 14.465 4.4898 14.695 4.10146 15.045C3.6098 15.5267 3.33313 16.1883 3.33313 16.8783C3.3348 17.5333 3.59813 18.16 4.06646 18.6167L10.2331 24.55C10.2465 24.5633 10.2515 24.5817 10.2515 24.6L8.76646 32.9167C8.67813 33.46 8.77313 34.0167 9.0348 34.5ZM19.9515 6.61163L19.9681 6.59996H19.9998L20.0148 6.61496C20.0298 6.61496 20.0431 6.6183 20.0548 6.6283C20.0648 6.6383 20.0698 6.65163 20.0681 6.66663L23.8348 14.1983C24.1965 14.94 24.8998 15.4566 25.7165 15.5816L34.1531 16.8083C34.1681 16.8083 34.1831 16.8116 34.1965 16.8183C34.2048 16.82 34.2115 16.82 34.2198 16.8183L34.2365 16.8333L34.2198 16.87L28.1031 22.8016C27.4948 23.3716 27.2231 24.215 27.3848 25.0333L28.8531 33.335L28.8198 33.3666H28.7848C28.7781 33.37 28.7715 33.37 28.7648 33.3666C28.7481 33.365 28.7315 33.3583 28.7165 33.35H28.7015L21.2015 29.4333C20.8415 29.2466 20.4415 29.1466 20.0348 29.1483C19.6165 29.1483 19.2031 29.2533 18.8331 29.45L11.2848 33.4083C11.2765 33.41 11.2665 33.41 11.2581 33.4083C11.2231 33.4083 11.1931 33.385 11.1848 33.3516V33.3183L12.6515 25.0183C12.7881 24.2066 12.5215 23.3783 11.9348 22.8016L5.76812 16.885C5.76646 16.86 5.76979 16.8383 5.78312 16.8166L5.88479 16.7833L14.2681 15.5816C15.0848 15.455 15.7865 14.94 16.1498 14.1983L19.9181 6.6483C19.9265 6.6333 19.9365 6.61996 19.9515 6.61163Z" fill="#4F635E"/>
</svg>
