<svg width="1440" height="1376" viewBox="0 0 1440 1376" fill="none" xmlns="http://www.w3.org/2000/svg">
<g clip-path="url(#clip0)">
<g clip-path="url(#clip1)">
<path d="M105.361 617.794C16.3594 594.327 -36.8192 503.353 -13.4167 414.595C-3.17014 375.733 20.0611 343.74 50.4091 322.02L50.3156 321.996L217.181 196.021L293.549 373.113L105.361 617.794Z" fill="#B4E4D7"/>
<path d="M368.872 769.76C263.39 798.476 154.536 736.01 125.74 630.236C96.9439 524.463 159.112 415.438 264.593 386.721C310.319 374.272 356.673 378.968 396.871 396.89L396.867 396.877L626.987 493.047L478.547 692.976L478.516 692.865C452.938 729.215 415.058 757.186 368.872 769.76Z" fill="#A8E3B2"/>
<path d="M42.509 313.428C42.7719 313.19 43.0464 312.961 43.3323 312.745L210.197 186.771C213.037 184.627 216.704 183.906 220.143 184.815C223.581 185.723 226.414 188.162 227.824 191.432L286.241 326.896C288.776 332.774 286.064 339.593 280.188 342.128C274.308 344.664 267.488 341.951 264.955 336.075L212.385 214.167L58.4081 330.411C58.0187 330.782 57.6005 331.128 57.1552 331.447C28.015 352.3 6.93334 382.88 -2.20889 417.551C-12.7364 457.479 -7.04144 499.129 13.8275 534.83C34.7022 570.541 68.258 596.025 108.317 606.589C108.594 606.661 108.86 606.755 109.127 606.847C107.783 597.28 107.104 587.691 107.081 578.131L36.3582 456.759C33.1342 451.228 35.0063 444.131 40.5374 440.909C46.0676 437.686 53.168 439.56 56.387 445.087L110.805 538.477C114.68 518.281 121.564 498.599 131.392 479.984L82.8412 396.664C79.6173 391.133 81.4893 384.036 87.0204 380.814C92.5506 377.591 99.651 379.464 102.87 384.992L138.593 446.299L151.736 396.456L123.348 347.738C120.124 342.206 121.996 335.109 127.527 331.887C133.058 328.665 140.158 330.538 143.377 336.066L160.094 364.756L172.67 317.06C174.302 310.871 180.643 307.176 186.832 308.808C193.022 310.44 196.717 316.781 195.084 322.97L182.509 370.664L211.199 353.947C216.73 350.725 223.828 352.596 227.049 358.126C230.273 363.657 228.401 370.754 222.87 373.976L174.151 402.364L166.461 431.528C192.275 404.876 224.836 385.532 261.552 375.537C307.786 362.951 357.326 366.7 401.117 386.092C401.19 386.121 401.266 386.152 401.341 386.182L453.563 408.006C459.473 410.478 462.255 417.264 459.787 423.169C457.318 429.076 450.53 431.863 444.624 429.394L392.877 407.768C392.634 407.679 392.394 407.58 392.156 407.475C353.118 390.071 308.898 386.67 267.642 397.903C219.619 410.977 179.575 442.022 154.885 485.322C132.11 525.263 124.928 571.217 134.233 615.912L171.77 605.693L252.671 464.265C255.849 458.707 262.93 456.78 268.487 459.959C274.046 463.141 275.97 470.218 272.792 475.775L203.399 597.082L286.208 574.539L342.332 476.422C345.51 470.865 352.591 468.938 358.148 472.117C363.706 475.296 365.631 482.376 362.453 487.932L317.838 565.926L383.114 548.155L416.914 489.067C420.093 483.509 427.173 481.582 432.73 484.761C438.289 487.942 440.213 495.02 437.035 500.576L414.746 539.545L476.586 522.709C482.763 521.026 489.133 524.671 490.814 530.848C492.495 537.023 488.852 543.395 482.675 545.075L420.836 561.91L459.801 584.2C465.36 587.379 467.284 594.459 464.106 600.015C460.927 605.573 453.847 607.5 448.29 604.321L389.202 570.522L323.925 588.293L401.917 632.907C407.475 636.087 409.4 643.166 406.222 648.723C403.043 654.281 395.963 656.208 390.405 653.029L292.292 596.906L209.483 619.45L330.789 688.84C336.348 692.021 338.272 699.099 335.094 704.656C331.915 710.214 324.835 712.141 319.277 708.962L177.85 628.061L140.317 638.279C171.754 730.954 270.42 784.548 365.821 758.576C407.523 747.223 444.177 721.518 469.03 686.195C469.365 685.717 469.732 685.273 470.128 684.861L608.851 498.031L532.394 466.079C526.483 463.607 523.702 456.822 526.17 450.916C528.64 445.009 535.428 442.223 541.334 444.691L631.457 482.352C634.743 483.728 637.22 486.54 638.164 489.976C639.108 493.412 638.418 497.093 636.293 499.957L487.852 699.885C487.617 700.203 487.366 700.505 487.104 700.792C459.168 739.876 418.322 768.31 371.917 780.943C297.187 801.289 220.674 778.231 169.183 727.148C146.44 704.587 128.603 676.544 117.933 644.375L-8.2896 702.18C-12.4326 703.307 -16.6622 702.039 -19.5066 699.218C-20.902 697.833 -21.9645 696.074 -22.5185 694.041C-24.201 687.864 -20.5568 681.494 -14.3795 679.813L94.5476 626.717C67.0024 618.119 42.3808 603.275 22.3126 583.366C11.378 572.519 1.79033 560.172 -6.18477 546.527C-30.1835 505.471 -36.7328 457.564 -24.623 411.639C-14.2304 372.218 9.58611 337.395 42.509 313.428Z" fill="#4F635E"/>
<path d="M485.74 445.664C483.576 443.517 482.325 440.53 482.314 437.483C482.302 434.418 483.535 431.429 485.682 429.264C487.829 427.1 490.8 425.851 493.865 425.839C496.913 425.826 499.909 427.051 502.074 429.199C504.238 431.346 505.488 434.332 505.5 437.381C505.504 440.438 504.287 443.426 502.139 445.59C499.984 447.762 497.006 449.005 493.949 449.025C490.899 449.037 487.904 447.811 485.74 445.664Z" fill="#4F635E"/>
<path d="M196.676 293.545C192.867 294.164 189.189 292.851 186.644 290.326C184.968 288.664 183.783 286.474 183.374 283.965C182.345 277.648 186.634 271.691 192.951 270.664L193.068 270.646C199.386 269.618 205.342 273.907 206.369 280.225C207.397 286.542 203.109 292.499 196.791 293.526L196.676 293.545Z" fill="#4F635E"/>
</g>
<g clip-path="url(#clip2)">
<path d="M1123.52 1076.06C1011.62 1045.07 919.66 963.4 875.681 855.936C987.584 886.926 1079.54 968.6 1123.52 1076.06Z" fill="#A8E3B2"/>
<path d="M1174.75 1124.16C1091.2 1170.48 989.751 1176.49 901.321 1140.35C984.868 1094.02 1086.32 1088.01 1174.75 1124.16Z" fill="#A8E3B2"/>
<path d="M1282.39 1205.56C1198.84 1251.88 1097.39 1257.89 1008.96 1221.75C1092.51 1175.42 1193.96 1169.41 1282.39 1205.56Z" fill="#A8E3B2"/>
<path d="M1394.08 1279.39C1317.39 1321.91 1224.28 1327.42 1143.11 1294.25C1219.8 1251.73 1312.91 1246.21 1394.08 1279.39Z" fill="#A8E3B2"/>
<path d="M1395.34 1277.97C1428.51 1196.81 1423 1103.69 1380.48 1027.01C1347.3 1108.17 1352.82 1201.29 1395.34 1277.97Z" fill="#A8E3B2"/>
<path d="M1282.39 1205.56C1321.5 1109.87 1315 1000.11 1264.87 909.708C1225.76 1005.39 1232.26 1115.16 1282.39 1205.56Z" fill="#A8E3B2"/>
<path d="M1173.14 1116.21C1209.29 1027.78 1203.28 926.334 1156.95 842.787C1120.81 931.216 1126.82 1032.66 1173.14 1116.21Z" fill="#A8E3B2"/>
<path d="M1026.22 948.668C1023.42 948.834 1020.57 947.931 1018.31 945.921L1017.81 945.473C1013.31 941.461 1012.91 934.559 1016.92 930.057C1020.93 925.555 1027.83 925.159 1032.34 929.169L1032.84 929.618C1037.34 933.63 1037.74 940.532 1033.72 945.033C1031.72 947.279 1029 948.503 1026.22 948.668Z" fill="#4F635E"/>
<path d="M966.878 1002.84C922.813 963.702 887.783 914.333 865.575 860.07C863.999 856.216 864.751 851.799 867.517 848.684C870.284 845.57 874.58 844.303 878.594 845.412C923.163 857.756 964.826 877.848 1002.43 905.133C1007.31 908.674 1008.39 915.501 1004.85 920.381C1001.31 925.261 994.485 926.349 989.605 922.806C960.612 901.769 929.066 885.264 895.56 873.578C937.688 959.649 1013.21 1026.73 1103.65 1058.41C1088.49 1027.32 1068.98 998.607 1045.49 972.806C1041.43 968.348 1041.75 961.443 1046.21 957.383C1050.67 953.32 1057.57 953.644 1061.63 958.103C1092.25 991.727 1116.48 1030.02 1133.63 1071.93C1133.81 1072.37 1133.95 1072.82 1134.07 1073.27C1137.89 1076.6 1141.72 1079.9 1145.57 1083.19C1132.91 1051.01 1125.28 1016.65 1123.22 981.974C1120.33 933.105 1128.5 883.546 1146.85 838.653C1148.44 834.765 1152.12 832.133 1156.31 831.885C1160.5 831.637 1164.47 833.816 1166.5 837.489C1190.02 879.903 1203.98 928.152 1206.87 977.021C1209.67 1024.31 1202.11 1072.25 1184.99 1115.98C1207.24 1133.96 1229.89 1151.4 1252.91 1168.28C1239.53 1133.9 1231.46 1097.24 1229.27 1060.26C1226.14 1007.51 1234.96 954.025 1254.76 905.574C1256.35 901.686 1260.03 899.054 1264.23 898.806C1268.42 898.558 1272.38 900.737 1274.42 904.41C1299.8 950.186 1314.87 1002.26 1317.99 1055C1320.89 1104.01 1313.48 1153.66 1296.53 1199.32C1320.21 1215.64 1344.26 1231.39 1368.63 1246.53C1357.32 1217.32 1350.48 1186.21 1348.62 1154.81C1345.96 1109.83 1353.48 1064.2 1370.37 1022.88C1371.96 1018.99 1375.64 1016.36 1379.83 1016.11C1384.03 1015.86 1387.99 1018.04 1390.03 1021.71C1411.68 1060.76 1424.53 1105.17 1427.19 1150.16C1429.63 1191.25 1423.54 1232.85 1409.6 1271.24C1421.48 1278.19 1433.43 1285.01 1445.45 1291.67C1450.72 1294.59 1452.62 1301.24 1449.7 1306.51C1447.82 1309.91 1444.39 1311.91 1440.79 1312.12C1438.79 1312.24 1436.73 1311.81 1434.85 1310.77C1422.47 1303.9 1410.16 1296.87 1397.93 1289.71C1359.23 1310.88 1315.36 1323.47 1270.92 1326.1C1225.94 1328.76 1180.31 1321.24 1138.98 1304.35C1135.1 1302.76 1132.46 1299.09 1132.22 1294.89C1131.97 1290.7 1134.15 1286.73 1137.82 1284.7C1176.87 1263.05 1221.28 1250.2 1266.27 1247.53C1289.38 1246.16 1312.65 1247.5 1335.43 1251.4C1318.09 1240.28 1300.91 1228.86 1283.92 1217.15C1242.43 1239.43 1195.58 1252.66 1148.15 1255.47C1099.29 1258.37 1049.73 1250.2 1004.83 1231.85C1000.95 1230.26 998.314 1226.58 998.066 1222.39C997.818 1218.19 999.997 1214.23 1003.67 1212.19C1046.08 1188.68 1094.33 1174.72 1143.2 1171.82C1172.08 1170.11 1201.2 1172.27 1229.45 1178.1C1211.17 1164.49 1193.13 1150.54 1175.34 1136.25C1146.43 1151.66 1115.36 1162.61 1082.89 1168.8C1082.42 1168.89 1081.95 1168.95 1081.48 1168.98C1076.09 1169.3 1071.16 1165.57 1070.12 1160.12C1068.99 1154.2 1072.88 1148.48 1078.8 1147.35C1102.49 1142.83 1125.39 1135.61 1147.14 1125.8C1075.76 1103.39 997.165 1108.04 928.928 1138.72C951.329 1145.78 974.54 1150.23 998.21 1151.98C1004.22 1152.42 1008.74 1157.66 1008.29 1163.67C1007.85 1169.68 1002.61 1174.19 996.6 1173.75C962.261 1171.21 928.815 1163.37 897.193 1150.45C893.305 1148.86 890.673 1145.18 890.425 1140.99C890.177 1136.79 892.356 1132.83 896.029 1130.79C938.442 1107.28 986.691 1093.32 1035.56 1090.42C1067.18 1088.55 1099.09 1091.32 1129.83 1098.47C1124.5 1093.89 1119.18 1089.29 1113.89 1084.65C1059.89 1068.61 1009.19 1040.42 966.878 1002.84ZM1158.59 870.415C1136.19 941.781 1140.84 1020.36 1171.51 1088.58C1193.91 1017.22 1189.25 938.639 1158.59 870.415ZM1266.49 937.11C1241.15 1015.87 1246.3 1102.94 1280.76 1178.15C1306.11 1099.4 1300.95 1012.33 1266.49 937.11ZM1382.13 1054.92C1362.67 1118.84 1366.82 1188.88 1393.68 1250.06C1413.14 1186.14 1408.99 1116.1 1382.13 1054.92ZM1171.02 1292.6C1234.95 1312.06 1304.99 1307.91 1366.17 1281.04C1302.24 1261.58 1232.2 1265.73 1171.02 1292.6ZM1036.59 1220.11C1107.96 1242.51 1186.53 1237.86 1254.76 1207.19C1183.39 1184.79 1104.82 1189.44 1036.59 1220.11Z" fill="#4F635E"/>
<path d="M1035.94 1152.45C1041.96 1152.18 1047.06 1156.84 1047.34 1162.87C1047.61 1168.84 1043.03 1173.91 1037.08 1174.26C1037.03 1174.26 1036.97 1174.27 1036.92 1174.27L1036.47 1174.29C1030.44 1174.56 1025.34 1169.9 1025.07 1163.88C1024.8 1157.85 1029.46 1152.71 1035.48 1152.48L1035.94 1152.45Z" fill="#4F635E"/>
</g>
<path d="M569.296 -160.486C611.909 -192.509 697.879 -108.974 627.796 -51.4863C575.876 -8.89801 508.796 -88.9863 536.296 -129.986M542.796 -196.983C484.296 -349.486 695.296 -356.486 643.296 -196.983C768.296 -325.486 858.796 -121.986 695.296 -104.483C866.796 -76.9863 749.296 125.514 643.296 -17.983C709.796 155.514 471.296 140.014 542.796 -17.983C443.296 127.514 308.796 -74.4863 494.296 -104.483C305.296 -127.484 440.296 -331.984 542.796 -196.983Z" stroke="#BFD9E3" stroke-width="20" stroke-linecap="round" stroke-linejoin="round"/>
</g>
<defs>
<clipPath id="clip0">
<rect width="1440" height="1376" fill="white"/>
</clipPath>
<clipPath id="clip1">
<rect width="593.381" height="631.196" fill="white" transform="matrix(-0.709929 -0.704273 -0.704273 0.709929 670.293 519.903)"/>
</clipPath>
<clipPath id="clip2">
<rect width="559" height="559" fill="white" transform="matrix(-0.998252 0.0591086 0.0591086 0.998252 1420.52 785)"/>
</clipPath>
</defs>
</svg>
