<svg width="421" height="96" viewBox="0 0 421 96" fill="none" xmlns="http://www.w3.org/2000/svg">
<path d="M32.4579 53.532H12.1212C12.5701 61.4332 15.6453 65.3838 21.3468 65.3838C22.8732 65.3838 24.6015 65.0247 26.532 64.3064C28.5073 63.5881 29.9439 62.578 30.8417 61.2761L31.7845 61.9495C30.7968 63.6106 29.1133 64.9798 26.734 66.0572C24.3546 67.1347 21.9753 67.6734 19.5959 67.6734C17.2615 67.6734 15.1515 67.4489 13.266 67C11.3805 66.5062 9.53983 65.6981 7.7441 64.5758C5.94837 63.4534 4.53423 61.7699 3.50168 59.5253C2.51403 57.2806 2.0202 54.5645 2.0202 51.3771C2.0202 45.945 3.52413 41.9271 6.53198 39.3233C9.53983 36.6746 13.1762 35.3502 17.4411 35.3502C21.7508 35.3502 25.3198 36.7868 28.1481 39.66C31.0213 42.5331 32.4579 47.1571 32.4579 53.532ZM12.0539 52.1852H23.0303C23.0303 48.055 22.5813 44.4411 21.6835 41.3435C20.8305 38.2458 19.4388 36.697 17.5084 36.697C15.578 36.697 14.1863 38.2009 13.3333 41.2088C12.4803 44.1717 12.0539 47.5836 12.0539 51.4445V52.1852ZM47.7204 67.8081C44.084 67.8081 40.9415 66.3715 38.2928 63.4983C35.6441 60.6251 34.3197 56.5623 34.3197 51.3098C34.3197 46.0573 35.6216 41.9495 38.2254 38.9866C40.8293 36.0236 43.9942 34.5421 47.7204 34.5421C49.561 34.5421 51.2894 34.9237 52.9056 35.6869C54.5217 36.4501 55.689 37.5949 56.4072 39.1212V23.229H53.0402V21.8822H66.5082V65.6532H69.8752V67H56.4072V63.9024C55.1951 66.5062 52.2995 67.8081 47.7204 67.8081ZM56.4072 52.2525V41.1414C55.1951 38.7172 53.6014 37.5051 51.6261 37.5051C49.6957 37.5051 48.0346 38.6274 46.6429 40.8721C45.2513 43.1167 44.5554 46.6858 44.5554 51.5791C44.5554 56.4276 45.2737 59.9742 46.7103 62.2189C48.1469 64.4635 49.8753 65.4287 51.8955 65.1145C53.0178 64.9349 53.8708 64.5758 54.4544 64.037C55.7563 62.78 56.4072 58.8519 56.4072 52.2525ZM101.989 53.532H81.6524C82.1013 61.4332 85.1765 65.3838 90.878 65.3838C92.4043 65.3838 94.1327 65.0247 96.0631 64.3064C98.0384 63.5881 99.475 62.578 100.373 61.2761L101.316 61.9495C100.328 63.6106 98.6445 64.9798 96.2652 66.0572C93.8858 67.1347 91.5065 67.6734 89.1271 67.6734C86.7927 67.6734 84.6827 67.4489 82.7972 67C80.9116 66.5062 79.071 65.6981 77.2753 64.5758C75.4795 63.4534 74.0654 61.7699 73.0329 59.5253C72.0452 57.2806 71.5514 54.5645 71.5514 51.3771C71.5514 45.945 73.0553 41.9271 76.0632 39.3233C79.071 36.6746 82.7074 35.3502 86.9722 35.3502C91.282 35.3502 94.851 36.7868 97.6793 39.66C100.552 42.5331 101.989 47.1571 101.989 53.532ZM81.585 52.1852H92.5615C92.5615 48.055 92.1125 44.4411 91.2147 41.3435C90.3617 38.2458 88.97 36.697 87.0396 36.697C85.1092 36.697 83.7175 38.2009 82.8645 41.2088C82.0115 44.1717 81.585 47.5836 81.585 51.4445V52.1852ZM139.878 65.6532H143.245V67H126.41V65.6532H129.777V46.798C129.777 43.6106 129.305 41.3435 128.363 39.9967C127.42 38.6499 126.006 37.9765 124.12 37.9765C121.561 37.9765 119.519 39.3233 117.992 42.0169V65.6532H121.359V67H104.524V65.6532H107.891V37.3704H104.524V36.0236H117.992V39.5253C118.845 38.3581 120.17 37.3704 121.965 36.5623C123.806 35.7093 125.781 35.2829 127.891 35.2829C135.882 35.2829 139.878 39.6151 139.878 48.2795V65.6532ZM150.553 28.8856L148.062 29.2896C146.894 29.2896 145.84 28.908 144.897 28.1448C143.999 27.3367 143.55 26.192 143.55 24.7105C143.55 23.1841 144.044 21.9046 145.031 20.8721C146.019 19.8396 147.388 19.3233 149.139 19.3233C150.935 19.3233 152.394 19.9967 153.516 21.3435C154.683 22.6903 155.267 24.4411 155.267 26.596C155.267 28.706 154.437 30.816 152.776 32.926C151.159 35.0359 148.825 36.7868 145.772 38.1785L145.301 37.0337C149.521 34.6992 151.631 32.3423 151.631 29.963C151.631 29.2447 151.272 28.8856 150.553 28.8856ZM171.714 66.4613C176.383 66.4613 178.718 65.1818 178.718 62.6229C178.718 61.1863 177.91 60.0191 176.293 59.1212C174.677 58.1785 172.724 57.4153 170.435 56.8317C168.145 56.248 165.878 55.5746 163.634 54.8115C161.434 54.0483 159.593 52.8362 158.112 51.1751C156.675 49.514 156.091 47.3367 156.361 44.6431C156.63 41.9495 157.999 39.7273 160.469 37.9765C162.983 36.2256 166.058 35.3502 169.694 35.3502C173.375 35.3502 176.338 35.9338 178.583 37.101C180.828 38.2683 182.085 39.8395 182.354 41.8148C182.534 43.027 182.332 44.1493 181.748 45.1818C181.209 46.2144 180.289 46.7531 178.987 46.798C177.73 46.8429 176.675 46.5062 175.822 45.7879C175.014 45.0696 174.632 44.2391 174.677 43.2963C174.722 42.3536 175.081 41.523 175.755 40.8047C176.428 40.0416 176.765 39.4355 176.765 38.9866C176.765 38.2234 176.024 37.6622 174.543 37.3031C173.106 36.899 171.423 36.697 169.492 36.697C167.607 36.697 166.058 37.1235 164.846 37.9765C163.634 38.8294 163.028 39.8844 163.028 41.1414C163.028 42.3985 163.768 43.4759 165.25 44.3738C166.776 45.2716 168.617 46.0124 170.772 46.596C172.926 47.1347 175.059 47.7632 177.169 48.4815C179.324 49.1549 181.142 50.2548 182.623 51.7812C184.15 53.3075 184.913 55.2379 184.913 57.5724C184.913 60.67 183.813 63.1616 181.613 65.0471C179.414 66.8878 176.091 67.8081 171.647 67.8081C167.203 67.8081 163.589 67.1347 160.805 65.7879C158.067 64.4411 156.563 62.7127 156.294 60.6027C156.114 59.3906 156.316 58.2682 156.9 57.2357C157.483 56.2032 158.403 55.6644 159.661 55.6195C160.918 55.5746 161.95 55.9113 162.758 56.6296C163.611 57.3479 164.015 58.1785 163.97 59.1212C163.925 60.064 163.566 60.917 162.893 61.6801C162.219 62.3984 161.883 62.982 161.883 63.431C161.883 64.3288 162.915 65.0696 164.98 65.6532C167.09 66.1919 169.335 66.4613 171.714 66.4613Z" fill="#B4E4D7"/>
<path d="M218.603 60.7374C218.603 61.9944 219.411 62.7127 221.027 62.8923H232.61C236.605 62.8923 239.389 63.7452 240.96 65.4512C242.531 67.1571 243.07 69.2671 242.576 71.7811C242.127 74.2952 240.601 76.6072 237.997 78.7172C235.393 80.8271 231.802 81.8821 227.223 81.8821C218.827 81.8821 213.44 80.6476 211.061 78.1784C210.163 77.1908 209.781 76.0236 209.916 74.6768C210.051 73.3749 210.545 72.2974 211.398 71.4444C212.251 70.6364 213.216 70.0752 214.293 69.7609C212.857 68.5488 212.138 67.0449 212.138 65.2492C212.138 63.4534 212.677 61.8597 213.755 60.468C214.877 59.0314 216.156 57.8867 217.593 57.0337C212.43 55.1482 209.849 51.7587 209.849 46.8653C209.849 43.229 211.51 40.4231 214.832 38.4478C218.199 36.4276 221.992 35.4175 226.212 35.4175C228.233 35.4175 230.253 35.7318 232.273 36.3603C231.24 34.9686 230.724 33.3076 230.724 31.3771C230.724 29.4467 231.375 27.853 232.677 26.596C234.024 25.2941 235.685 24.6431 237.66 24.6431C239.68 24.6431 241.184 25.1819 242.172 26.2593C243.205 27.2918 243.721 28.4591 243.721 29.761C243.721 31.0629 243.317 32.1628 242.509 33.0606C241.746 33.9585 240.713 34.4074 239.411 34.4074C238.154 34.4074 237.144 33.981 236.381 33.128C235.618 32.275 235.236 31.422 235.236 30.5691C235.236 29.6712 235.393 28.908 235.707 28.2795C236.066 27.6061 236.246 27.2245 236.246 27.1347C236.111 26.4164 235.662 26.2144 234.899 26.5287C234.136 26.8429 233.463 27.4939 232.879 28.4815C232.34 29.4243 232.071 30.5242 232.071 31.7812C232.071 34.2503 233.171 36.2256 235.371 37.7071C239.231 39.862 241.162 42.8474 241.162 46.6633C241.162 50.4793 239.568 53.3749 236.381 55.3502C233.193 57.2806 229.422 58.2458 225.068 58.2458C222.958 58.2458 221.095 58.0213 219.478 57.5724C218.895 58.5601 218.603 59.615 218.603 60.7374ZM231.061 46.7307C231.061 42.8698 230.612 40.2436 229.714 38.8519C228.816 37.4602 227.469 36.7643 225.674 36.7643C223.923 36.7643 222.643 37.4826 221.835 38.9192C221.027 40.3109 220.623 42.8923 220.623 46.6633C220.623 50.4344 221.05 53.0831 221.903 54.6094C222.756 56.1358 224.035 56.899 225.741 56.899C227.492 56.899 228.816 56.1583 229.714 54.6768C230.612 53.1953 231.061 50.5466 231.061 46.7307ZM232.206 71.6465H220.893C218.738 71.6465 216.919 71.2649 215.438 70.5017C214.81 73.734 215.618 76.2031 217.862 77.9091C220.152 79.6599 223.272 80.5353 227.223 80.5353C231.173 80.5353 234.45 79.5477 237.054 77.5724C238.266 76.6745 238.94 75.7766 239.074 74.8788C239.209 73.9809 238.693 73.2177 237.526 72.5892C236.358 71.9607 234.585 71.6465 232.206 71.6465ZM277.912 65.6532C277.463 66.1021 276.61 66.5062 275.353 66.8653C274.096 67.1796 272.637 67.3367 270.976 67.3367C267.294 67.3367 264.982 66.2368 264.04 64.037C261.795 66.3715 258.361 67.5387 253.737 67.5387C251.267 67.5387 249.225 66.9776 247.609 65.8552C246.037 64.688 245.252 62.982 245.252 60.7374C245.252 57.7295 246.419 55.4175 248.753 53.8014C251.088 52.1403 255.173 50.9731 261.009 50.2997L263.703 49.963V46.6633C263.703 42.7576 263.411 40.1313 262.827 38.7845C262.244 37.4377 261.077 36.7643 259.326 36.7643C257.62 36.7643 256.52 37.0113 256.026 37.5051C255.532 37.954 255.353 38.4927 255.487 39.1212C255.622 39.7049 255.847 40.4905 256.161 41.4781C256.475 42.4658 256.632 43.2514 256.632 43.835C256.632 45.2267 256.138 46.4164 255.151 47.4041C254.208 48.3468 253.041 48.8182 251.649 48.8182C250.302 48.8182 249.135 48.3468 248.147 47.4041C247.16 46.4164 246.666 45.2267 246.666 43.835C246.666 41.5455 247.833 39.5926 250.168 37.9765C252.547 36.3154 256.071 35.4849 260.74 35.4849C265.454 35.4849 268.798 36.4052 270.774 38.2458C272.794 40.0864 273.804 43.3412 273.804 48.0101V60.1313C273.804 62.5107 274.096 64.0146 274.679 64.6431C275.263 65.2267 276.34 65.3389 277.912 64.9798V65.6532ZM254.612 59.3906C254.836 61.0965 255.465 62.4209 256.498 63.3636C257.53 64.2615 258.72 64.7104 260.067 64.7104C261.458 64.7104 262.67 64.037 263.703 62.6902V51.2424L261.279 51.5791C259.214 51.8485 257.53 52.6341 256.228 53.936C254.971 55.2379 254.432 57.0561 254.612 59.3906ZM296.425 67H279.59V65.6532H282.957V37.3704H279.59V36.0236H293.058V44.0371C293.462 41.8373 294.18 40.0416 295.213 38.6499C296.29 37.2582 297.457 36.3379 298.714 35.8889C300.016 35.44 301.251 35.2155 302.418 35.2155C303.63 35.2155 304.775 35.44 305.852 35.8889C306.975 36.293 307.805 37.1459 308.344 38.4478C308.883 39.7049 308.905 40.9843 308.411 42.2862C307.918 43.5432 307.042 44.4411 305.785 44.9798C304.573 45.5185 303.451 45.5859 302.418 45.1818C301.386 44.7778 300.645 44.2391 300.196 43.5657C299.747 42.8474 299.433 42.174 299.253 41.5455C298.804 39.8844 298.198 39.0539 297.435 39.0539C296.582 39.0539 295.639 40.5354 294.607 43.4983C293.574 46.4164 293.058 49.514 293.058 52.7913V65.6532H296.425V67ZM322.512 67.8081C318.876 67.8081 315.733 66.3715 313.085 63.4983C310.436 60.6251 309.112 56.5623 309.112 51.3098C309.112 46.0573 310.414 41.9495 313.017 38.9866C315.621 36.0236 318.786 34.5421 322.512 34.5421C324.353 34.5421 326.081 34.9237 327.697 35.6869C329.314 36.4501 330.481 37.5949 331.199 39.1212V23.229H327.832V21.8822H341.3V65.6532H344.667V67H331.199V63.9024C329.987 66.5062 327.091 67.8081 322.512 67.8081ZM331.199 52.2525V41.1414C329.987 38.7172 328.393 37.5051 326.418 37.5051C324.488 37.5051 322.827 38.6274 321.435 40.8721C320.043 43.1167 319.347 46.6858 319.347 51.5791C319.347 56.4276 320.066 59.9742 321.502 62.2189C322.939 64.4635 324.667 65.4287 326.687 65.1145C327.81 64.9349 328.663 64.5758 329.246 64.037C330.548 62.78 331.199 58.8519 331.199 52.2525ZM376.781 53.532H356.444C356.893 61.4332 359.968 65.3838 365.67 65.3838C367.196 65.3838 368.925 65.0247 370.855 64.3064C372.83 63.5881 374.267 62.578 375.165 61.2761L376.108 61.9495C375.12 63.6106 373.436 64.9798 371.057 66.0572C368.678 67.1347 366.298 67.6734 363.919 67.6734C361.585 67.6734 359.475 67.4489 357.589 67C355.704 66.5062 353.863 65.6981 352.067 64.5758C350.271 63.4534 348.857 61.7699 347.825 59.5253C346.837 57.2806 346.343 54.5645 346.343 51.3771C346.343 45.945 347.847 41.9271 350.855 39.3233C353.863 36.6746 357.499 35.3502 361.764 35.3502C366.074 35.3502 369.643 36.7868 372.471 39.66C375.344 42.5331 376.781 47.1571 376.781 53.532ZM356.377 52.1852H367.353C367.353 48.055 366.904 44.4411 366.007 41.3435C365.154 38.2458 363.762 36.697 361.831 36.697C359.901 36.697 358.509 38.2009 357.656 41.2088C356.803 44.1717 356.377 47.5836 356.377 51.4445V52.1852ZM414.67 65.6532H418.037V67H401.202V65.6532H404.569V46.798C404.569 43.6106 404.097 41.3435 403.155 39.9967C402.212 38.6499 400.798 37.9765 398.912 37.9765C396.353 37.9765 394.311 39.3233 392.784 42.0169V65.6532H396.151V67H379.316V65.6532H382.683V37.3704H379.316V36.0236H392.784V39.5253C393.637 38.3581 394.962 37.3704 396.757 36.5623C398.598 35.7093 400.573 35.2829 402.683 35.2829C410.674 35.2829 414.67 39.6151 414.67 48.2795V65.6532Z" fill="black"/>
<path d="M62.8944 78.48C63.1264 78.48 63.3104 78.552 63.4464 78.696C63.5824 78.832 63.6504 79.016 63.6504 79.248V86.292C63.6504 86.524 63.5784 86.712 63.4344 86.856C63.2984 87 63.1184 87.072 62.8944 87.072C62.6624 87.072 62.4784 87 62.3424 86.856C62.2064 86.712 62.1384 86.524 62.1384 86.292V83.328H57.8064V86.292C57.8064 86.524 57.7344 86.712 57.5904 86.856C57.4544 87 57.2704 87.072 57.0384 87.072C56.8144 87.072 56.6304 87 56.4864 86.856C56.3504 86.712 56.2824 86.524 56.2824 86.292V79.248C56.2824 79.016 56.3504 78.832 56.4864 78.696C56.6224 78.552 56.8064 78.48 57.0384 78.48C57.2704 78.48 57.4544 78.552 57.5904 78.696C57.7344 78.832 57.8064 79.016 57.8064 79.248V82.08H62.1384V79.248C62.1384 79.016 62.2064 78.832 62.3424 78.696C62.4784 78.552 62.6624 78.48 62.8944 78.48ZM68.5539 87C68.3219 87 68.1379 86.936 68.0019 86.808C67.8739 86.68 67.8099 86.5 67.8099 86.268V79.272C67.8099 79.04 67.8739 78.86 68.0019 78.732C68.1379 78.604 68.3219 78.54 68.5539 78.54H72.8859C73.1179 78.54 73.2979 78.592 73.4259 78.696C73.5539 78.8 73.6179 78.948 73.6179 79.14C73.6179 79.34 73.5539 79.496 73.4259 79.608C73.2979 79.712 73.1179 79.764 72.8859 79.764H69.3219V82.092H72.6459C72.8779 82.092 73.0579 82.144 73.1859 82.248C73.3139 82.352 73.3779 82.504 73.3779 82.704C73.3779 82.896 73.3139 83.044 73.1859 83.148C73.0579 83.252 72.8779 83.304 72.6459 83.304H69.3219V85.776H72.8859C73.1179 85.776 73.2979 85.832 73.4259 85.944C73.5539 86.048 73.6179 86.2 73.6179 86.4C73.6179 86.592 73.5539 86.74 73.4259 86.844C73.2979 86.948 73.1179 87 72.8859 87H68.5539ZM77.9483 87C77.7163 87 77.5363 86.936 77.4083 86.808C77.2803 86.68 77.2163 86.504 77.2163 86.28V79.248C77.2163 79.016 77.2843 78.832 77.4203 78.696C77.5643 78.552 77.7523 78.48 77.9843 78.48C78.2243 78.48 78.4123 78.552 78.5483 78.696C78.6923 78.832 78.7643 79.016 78.7643 79.248V85.728H82.1363C82.6163 85.728 82.8563 85.94 82.8563 86.364C82.8563 86.788 82.6163 87 82.1363 87H77.9483ZM86.9805 87.072C86.7485 87.072 86.5605 87.004 86.4165 86.868C86.2805 86.724 86.2125 86.532 86.2125 86.292V79.272C86.2125 79.04 86.2765 78.86 86.4045 78.732C86.5405 78.604 86.7245 78.54 86.9565 78.54H89.9085C90.8125 78.54 91.5165 78.768 92.0205 79.224C92.5245 79.672 92.7765 80.304 92.7765 81.12C92.7765 81.936 92.5245 82.572 92.0205 83.028C91.5165 83.484 90.8125 83.712 89.9085 83.712H87.7605V86.292C87.7605 86.532 87.6885 86.724 87.5445 86.868C87.4085 87.004 87.2205 87.072 86.9805 87.072ZM89.7165 82.524C90.7805 82.524 91.3125 82.06 91.3125 81.132C91.3125 80.204 90.7805 79.74 89.7165 79.74H87.7605V82.524H89.7165ZM97.2424 87.072C97.0104 87.072 96.8224 87 96.6784 86.856C96.5424 86.712 96.4744 86.524 96.4744 86.292V79.248C96.4744 79.016 96.5424 78.832 96.6784 78.696C96.8224 78.552 97.0104 78.48 97.2424 78.48C97.4824 78.48 97.6704 78.552 97.8064 78.696C97.9504 78.832 98.0224 79.016 98.0224 79.248V86.292C98.0224 86.524 97.9504 86.712 97.8064 86.856C97.6704 87 97.4824 87.072 97.2424 87.072ZM108.597 78.48C108.821 78.48 108.997 78.552 109.125 78.696C109.261 78.832 109.329 79.016 109.329 79.248V86.292C109.329 86.524 109.261 86.712 109.125 86.856C108.989 87 108.813 87.072 108.597 87.072C108.341 87.072 108.145 86.98 108.009 86.796L103.629 81.096V86.292C103.629 86.524 103.565 86.712 103.437 86.856C103.309 87 103.133 87.072 102.909 87.072C102.685 87.072 102.509 87 102.381 86.856C102.253 86.712 102.189 86.524 102.189 86.292V79.248C102.189 79.016 102.257 78.832 102.393 78.696C102.529 78.552 102.709 78.48 102.933 78.48C103.181 78.48 103.373 78.572 103.509 78.756L107.877 84.432V79.248C107.877 79.016 107.941 78.832 108.069 78.696C108.205 78.552 108.381 78.48 108.597 78.48ZM119.938 82.428C120.122 82.428 120.27 82.484 120.382 82.596C120.494 82.7 120.55 82.84 120.55 83.016V85.596C120.55 85.964 120.502 86.224 120.406 86.376C120.31 86.528 120.114 86.652 119.818 86.748C119.498 86.86 119.126 86.948 118.702 87.012C118.278 87.076 117.87 87.108 117.478 87.108C116.606 87.108 115.85 86.936 115.21 86.592C114.57 86.248 114.078 85.752 113.734 85.104C113.398 84.448 113.23 83.668 113.23 82.764C113.23 81.876 113.398 81.108 113.734 80.46C114.078 79.804 114.562 79.304 115.186 78.96C115.81 78.608 116.546 78.432 117.394 78.432C118.522 78.432 119.446 78.736 120.166 79.344C120.262 79.432 120.33 79.52 120.37 79.608C120.418 79.696 120.442 79.8 120.442 79.92C120.442 80.096 120.394 80.244 120.298 80.364C120.202 80.484 120.086 80.544 119.95 80.544C119.862 80.544 119.782 80.532 119.71 80.508C119.638 80.476 119.554 80.428 119.458 80.364C119.106 80.116 118.778 79.944 118.474 79.848C118.17 79.744 117.826 79.692 117.442 79.692C116.57 79.692 115.91 79.952 115.462 80.472C115.022 80.984 114.802 81.748 114.802 82.764C114.802 84.844 115.714 85.884 117.538 85.884C118.082 85.884 118.626 85.808 119.17 85.656V83.532H117.814C117.622 83.532 117.47 83.484 117.358 83.388C117.254 83.292 117.202 83.156 117.202 82.98C117.202 82.804 117.254 82.668 117.358 82.572C117.47 82.476 117.622 82.428 117.814 82.428H119.938ZM135.513 78.744C135.657 78.568 135.829 78.48 136.029 78.48C136.213 78.48 136.377 78.552 136.521 78.696C136.665 78.832 136.737 78.996 136.737 79.188C136.737 79.348 136.677 79.5 136.557 79.644L133.833 82.968V86.292C133.833 86.54 133.761 86.732 133.617 86.868C133.473 87.004 133.289 87.072 133.065 87.072C132.833 87.072 132.645 87.004 132.501 86.868C132.357 86.732 132.285 86.54 132.285 86.292V82.968L129.561 79.644C129.441 79.5 129.381 79.348 129.381 79.188C129.381 78.996 129.453 78.832 129.597 78.696C129.741 78.552 129.905 78.48 130.089 78.48C130.289 78.48 130.461 78.568 130.605 78.744L133.065 81.792L135.513 78.744ZM143.314 87.108C142.49 87.108 141.774 86.932 141.166 86.58C140.566 86.228 140.102 85.724 139.774 85.068C139.446 84.412 139.282 83.644 139.282 82.764C139.282 81.884 139.442 81.12 139.762 80.472C140.09 79.816 140.558 79.312 141.166 78.96C141.774 78.608 142.49 78.432 143.314 78.432C144.138 78.432 144.85 78.608 145.45 78.96C146.058 79.312 146.522 79.816 146.842 80.472C147.17 81.12 147.334 81.884 147.334 82.764C147.334 83.644 147.17 84.412 146.842 85.068C146.514 85.724 146.046 86.228 145.438 86.58C144.838 86.932 144.13 87.108 143.314 87.108ZM143.314 85.872C144.09 85.872 144.694 85.604 145.126 85.068C145.566 84.532 145.786 83.764 145.786 82.764C145.786 81.764 145.566 81 145.126 80.472C144.694 79.936 144.09 79.668 143.314 79.668C142.53 79.668 141.918 79.936 141.478 80.472C141.046 81 140.83 81.764 140.83 82.764C140.83 83.764 141.046 84.532 141.478 85.068C141.918 85.604 142.53 85.872 143.314 85.872ZM154.729 87.108C153.569 87.108 152.689 86.808 152.089 86.208C151.489 85.608 151.189 84.732 151.189 83.58V79.248C151.189 79.016 151.257 78.832 151.393 78.696C151.529 78.552 151.713 78.48 151.945 78.48C152.177 78.48 152.361 78.552 152.497 78.696C152.633 78.832 152.701 79.016 152.701 79.248V83.664C152.701 84.392 152.873 84.944 153.217 85.32C153.561 85.688 154.065 85.872 154.729 85.872C155.385 85.872 155.885 85.684 156.229 85.308C156.573 84.932 156.745 84.384 156.745 83.664V79.248C156.745 79.016 156.813 78.832 156.949 78.696C157.085 78.552 157.269 78.48 157.501 78.48C157.733 78.48 157.917 78.552 158.053 78.696C158.189 78.832 158.257 79.016 158.257 79.248V83.58C158.257 84.724 157.957 85.6 157.357 86.208C156.757 86.808 155.881 87.108 154.729 87.108ZM174.588 78.48C174.82 78.48 175.004 78.552 175.14 78.696C175.276 78.832 175.344 79.016 175.344 79.248V86.292C175.344 86.524 175.272 86.712 175.128 86.856C174.992 87 174.812 87.072 174.588 87.072C174.356 87.072 174.172 87 174.036 86.856C173.9 86.712 173.832 86.524 173.832 86.292V83.328H169.5V86.292C169.5 86.524 169.428 86.712 169.284 86.856C169.148 87 168.964 87.072 168.732 87.072C168.508 87.072 168.324 87 168.18 86.856C168.044 86.712 167.976 86.524 167.976 86.292V79.248C167.976 79.016 168.044 78.832 168.18 78.696C168.316 78.552 168.5 78.48 168.732 78.48C168.964 78.48 169.148 78.552 169.284 78.696C169.428 78.832 169.5 79.016 169.5 79.248V82.08H173.832V79.248C173.832 79.016 173.9 78.832 174.036 78.696C174.172 78.552 174.356 78.48 174.588 78.48ZM187.171 86.076C187.219 86.18 187.243 86.284 187.243 86.388C187.243 86.572 187.167 86.728 187.015 86.856C186.871 86.984 186.703 87.048 186.511 87.048C186.383 87.048 186.263 87.016 186.151 86.952C186.039 86.88 185.951 86.772 185.887 86.628L185.167 85.02H180.943L180.223 86.628C180.159 86.772 180.071 86.88 179.959 86.952C179.847 87.016 179.723 87.048 179.587 87.048C179.403 87.048 179.235 86.984 179.083 86.856C178.931 86.728 178.855 86.572 178.855 86.388C178.855 86.284 178.879 86.18 178.927 86.076L182.239 78.96C182.311 78.8 182.419 78.68 182.563 78.6C182.715 78.512 182.875 78.468 183.043 78.468C183.211 78.468 183.367 78.512 183.511 78.6C183.663 78.68 183.775 78.8 183.847 78.96L187.171 86.076ZM181.471 83.82H184.639L183.055 80.256L181.471 83.82ZM196.097 78.876C196.225 78.604 196.437 78.468 196.733 78.468C196.933 78.468 197.113 78.532 197.273 78.66C197.433 78.788 197.513 78.948 197.513 79.14C197.513 79.228 197.489 79.328 197.441 79.44L194.117 86.592C194.045 86.744 193.933 86.864 193.781 86.952C193.637 87.032 193.481 87.072 193.313 87.072C193.145 87.072 192.985 87.032 192.833 86.952C192.689 86.864 192.581 86.744 192.509 86.592L189.197 79.44C189.149 79.328 189.125 79.232 189.125 79.152C189.125 78.952 189.205 78.788 189.365 78.66C189.533 78.532 189.721 78.468 189.929 78.468C190.065 78.468 190.189 78.504 190.301 78.576C190.421 78.64 190.513 78.74 190.577 78.876L193.337 85.008L196.097 78.876ZM201.591 87C201.359 87 201.175 86.936 201.039 86.808C200.911 86.68 200.847 86.5 200.847 86.268V79.272C200.847 79.04 200.911 78.86 201.039 78.732C201.175 78.604 201.359 78.54 201.591 78.54H205.923C206.155 78.54 206.335 78.592 206.463 78.696C206.591 78.8 206.655 78.948 206.655 79.14C206.655 79.34 206.591 79.496 206.463 79.608C206.335 79.712 206.155 79.764 205.923 79.764H202.359V82.092H205.683C205.915 82.092 206.095 82.144 206.223 82.248C206.351 82.352 206.415 82.504 206.415 82.704C206.415 82.896 206.351 83.044 206.223 83.148C206.095 83.252 205.915 83.304 205.683 83.304H202.359V85.776H205.923C206.155 85.776 206.335 85.832 206.463 85.944C206.591 86.048 206.655 86.2 206.655 86.4C206.655 86.592 206.591 86.74 206.463 86.844C206.335 86.948 206.155 87 205.923 87H201.591ZM251.509 86.076C251.557 86.18 251.581 86.284 251.581 86.388C251.581 86.572 251.505 86.728 251.353 86.856C251.209 86.984 251.041 87.048 250.849 87.048C250.721 87.048 250.601 87.016 250.489 86.952C250.377 86.88 250.289 86.772 250.225 86.628L249.505 85.02H245.281L244.561 86.628C244.497 86.772 244.409 86.88 244.297 86.952C244.185 87.016 244.061 87.048 243.925 87.048C243.741 87.048 243.573 86.984 243.421 86.856C243.269 86.728 243.193 86.572 243.193 86.388C243.193 86.284 243.217 86.18 243.265 86.076L246.577 78.96C246.649 78.8 246.757 78.68 246.901 78.6C247.053 78.512 247.213 78.468 247.381 78.468C247.549 78.468 247.705 78.512 247.849 78.6C248.001 78.68 248.113 78.8 248.185 78.96L251.509 86.076ZM245.809 83.82H248.977L247.393 80.256L245.809 83.82ZM267.129 82.428C267.313 82.428 267.461 82.484 267.573 82.596C267.685 82.7 267.741 82.84 267.741 83.016V85.596C267.741 85.964 267.693 86.224 267.597 86.376C267.501 86.528 267.305 86.652 267.009 86.748C266.689 86.86 266.317 86.948 265.893 87.012C265.469 87.076 265.061 87.108 264.669 87.108C263.797 87.108 263.041 86.936 262.401 86.592C261.761 86.248 261.269 85.752 260.925 85.104C260.589 84.448 260.421 83.668 260.421 82.764C260.421 81.876 260.589 81.108 260.925 80.46C261.269 79.804 261.753 79.304 262.377 78.96C263.001 78.608 263.737 78.432 264.585 78.432C265.713 78.432 266.637 78.736 267.357 79.344C267.453 79.432 267.521 79.52 267.561 79.608C267.609 79.696 267.633 79.8 267.633 79.92C267.633 80.096 267.585 80.244 267.489 80.364C267.393 80.484 267.277 80.544 267.141 80.544C267.053 80.544 266.973 80.532 266.901 80.508C266.829 80.476 266.745 80.428 266.649 80.364C266.297 80.116 265.969 79.944 265.665 79.848C265.361 79.744 265.017 79.692 264.633 79.692C263.761 79.692 263.101 79.952 262.653 80.472C262.213 80.984 261.993 81.748 261.993 82.764C261.993 84.844 262.905 85.884 264.729 85.884C265.273 85.884 265.817 85.808 266.361 85.656V83.532H265.005C264.813 83.532 264.661 83.484 264.549 83.388C264.445 83.292 264.393 83.156 264.393 82.98C264.393 82.804 264.445 82.668 264.549 82.572C264.661 82.476 264.813 82.428 265.005 82.428H267.129ZM275.593 87.108C274.769 87.108 274.053 86.932 273.445 86.58C272.845 86.228 272.381 85.724 272.053 85.068C271.725 84.412 271.561 83.644 271.561 82.764C271.561 81.884 271.721 81.12 272.041 80.472C272.369 79.816 272.837 79.312 273.445 78.96C274.053 78.608 274.769 78.432 275.593 78.432C276.417 78.432 277.129 78.608 277.729 78.96C278.337 79.312 278.801 79.816 279.121 80.472C279.449 81.12 279.613 81.884 279.613 82.764C279.613 83.644 279.449 84.412 279.121 85.068C278.793 85.724 278.325 86.228 277.717 86.58C277.117 86.932 276.409 87.108 275.593 87.108ZM275.593 85.872C276.369 85.872 276.973 85.604 277.405 85.068C277.845 84.532 278.065 83.764 278.065 82.764C278.065 81.764 277.845 81 277.405 80.472C276.973 79.936 276.369 79.668 275.593 79.668C274.809 79.668 274.197 79.936 273.757 80.472C273.325 81 273.109 81.764 273.109 82.764C273.109 83.764 273.325 84.532 273.757 85.068C274.197 85.604 274.809 85.872 275.593 85.872ZM284.261 87C284.029 87 283.845 86.936 283.709 86.808C283.581 86.68 283.517 86.5 283.517 86.268V79.272C283.517 79.04 283.581 78.86 283.709 78.732C283.845 78.604 284.029 78.54 284.261 78.54H286.637C288.021 78.54 289.093 78.912 289.853 79.656C290.621 80.392 291.005 81.428 291.005 82.764C291.005 84.108 290.621 85.152 289.853 85.896C289.093 86.632 288.021 87 286.637 87H284.261ZM286.541 85.74C288.485 85.74 289.457 84.748 289.457 82.764C289.457 80.788 288.485 79.8 286.541 79.8H285.065V85.74H286.541ZM295.636 87C295.404 87 295.224 86.936 295.096 86.808C294.968 86.68 294.904 86.504 294.904 86.28V79.248C294.904 79.016 294.972 78.832 295.108 78.696C295.252 78.552 295.44 78.48 295.672 78.48C295.912 78.48 296.1 78.552 296.236 78.696C296.38 78.832 296.452 79.016 296.452 79.248V85.728H299.824C300.304 85.728 300.544 85.94 300.544 86.364C300.544 86.788 300.304 87 299.824 87H295.636ZM307.703 78.744C307.847 78.568 308.019 78.48 308.219 78.48C308.403 78.48 308.567 78.552 308.711 78.696C308.855 78.832 308.927 78.996 308.927 79.188C308.927 79.348 308.867 79.5 308.747 79.644L306.023 82.968V86.292C306.023 86.54 305.951 86.732 305.807 86.868C305.663 87.004 305.479 87.072 305.255 87.072C305.023 87.072 304.835 87.004 304.691 86.868C304.547 86.732 304.475 86.54 304.475 86.292V82.968L301.751 79.644C301.631 79.5 301.571 79.348 301.571 79.188C301.571 78.996 301.643 78.832 301.787 78.696C301.931 78.552 302.095 78.48 302.279 78.48C302.479 78.48 302.651 78.568 302.795 78.744L305.255 81.792L307.703 78.744ZM318.606 87.072C318.374 87.072 318.186 87.004 318.042 86.868C317.906 86.724 317.838 86.532 317.838 86.292V79.272C317.838 79.04 317.902 78.86 318.03 78.732C318.166 78.604 318.35 78.54 318.582 78.54H321.534C322.438 78.54 323.142 78.768 323.646 79.224C324.15 79.672 324.402 80.304 324.402 81.12C324.402 81.936 324.15 82.572 323.646 83.028C323.142 83.484 322.438 83.712 321.534 83.712H319.386V86.292C319.386 86.532 319.314 86.724 319.17 86.868C319.034 87.004 318.846 87.072 318.606 87.072ZM321.342 82.524C322.406 82.524 322.938 82.06 322.938 81.132C322.938 80.204 322.406 79.74 321.342 79.74H319.386V82.524H321.342ZM328.832 87C328.6 87 328.42 86.936 328.292 86.808C328.164 86.68 328.1 86.504 328.1 86.28V79.248C328.1 79.016 328.168 78.832 328.304 78.696C328.448 78.552 328.636 78.48 328.868 78.48C329.108 78.48 329.296 78.552 329.432 78.696C329.576 78.832 329.648 79.016 329.648 79.248V85.728H333.02C333.5 85.728 333.74 85.94 333.74 86.364C333.74 86.788 333.5 87 333.02 87H328.832ZM344.694 86.076C344.742 86.18 344.766 86.284 344.766 86.388C344.766 86.572 344.69 86.728 344.538 86.856C344.394 86.984 344.226 87.048 344.034 87.048C343.906 87.048 343.786 87.016 343.674 86.952C343.562 86.88 343.474 86.772 343.41 86.628L342.69 85.02H338.466L337.746 86.628C337.682 86.772 337.594 86.88 337.482 86.952C337.37 87.016 337.246 87.048 337.11 87.048C336.926 87.048 336.758 86.984 336.606 86.856C336.454 86.728 336.378 86.572 336.378 86.388C336.378 86.284 336.402 86.18 336.45 86.076L339.762 78.96C339.834 78.8 339.942 78.68 340.086 78.6C340.238 78.512 340.398 78.468 340.566 78.468C340.734 78.468 340.89 78.512 341.034 78.6C341.186 78.68 341.298 78.8 341.37 78.96L344.694 86.076ZM338.994 83.82H342.162L340.578 80.256L338.994 83.82ZM351.782 87.108C350.966 87.108 350.25 86.932 349.634 86.58C349.026 86.228 348.558 85.724 348.23 85.068C347.902 84.412 347.738 83.644 347.738 82.764C347.738 81.884 347.902 81.12 348.23 80.472C348.558 79.816 349.026 79.312 349.634 78.96C350.25 78.608 350.966 78.432 351.782 78.432C352.31 78.432 352.806 78.512 353.27 78.672C353.734 78.824 354.146 79.048 354.506 79.344C354.61 79.424 354.682 79.508 354.722 79.596C354.762 79.684 354.782 79.792 354.782 79.92C354.782 80.096 354.734 80.244 354.638 80.364C354.542 80.484 354.426 80.544 354.29 80.544C354.13 80.544 353.966 80.488 353.798 80.376C353.454 80.12 353.134 79.944 352.838 79.848C352.542 79.744 352.214 79.692 351.854 79.692C351.022 79.692 350.39 79.952 349.958 80.472C349.534 80.992 349.322 81.756 349.322 82.764C349.322 83.78 349.534 84.548 349.958 85.068C350.39 85.588 351.022 85.848 351.854 85.848C352.198 85.848 352.514 85.796 352.802 85.692C353.098 85.588 353.43 85.412 353.798 85.164C353.878 85.116 353.958 85.076 354.038 85.044C354.118 85.012 354.202 84.996 354.29 84.996C354.426 84.996 354.542 85.056 354.638 85.176C354.734 85.296 354.782 85.444 354.782 85.62C354.782 85.74 354.762 85.848 354.722 85.944C354.682 86.032 354.61 86.116 354.506 86.196C354.146 86.492 353.734 86.72 353.27 86.88C352.806 87.032 352.31 87.108 351.782 87.108ZM359.219 87C358.987 87 358.803 86.936 358.667 86.808C358.539 86.68 358.475 86.5 358.475 86.268V79.272C358.475 79.04 358.539 78.86 358.667 78.732C358.803 78.604 358.987 78.54 359.219 78.54H363.551C363.783 78.54 363.963 78.592 364.091 78.696C364.219 78.8 364.283 78.948 364.283 79.14C364.283 79.34 364.219 79.496 364.091 79.608C363.963 79.712 363.783 79.764 363.551 79.764H359.987V82.092H363.311C363.543 82.092 363.723 82.144 363.851 82.248C363.979 82.352 364.043 82.504 364.043 82.704C364.043 82.896 363.979 83.044 363.851 83.148C363.723 83.252 363.543 83.304 363.311 83.304H359.987V85.776H363.551C363.783 85.776 363.963 85.832 364.091 85.944C364.219 86.048 364.283 86.2 364.283 86.4C364.283 86.592 364.219 86.74 364.091 86.844C363.963 86.948 363.783 87 363.551 87H359.219Z" fill="#4F635E"/>
</svg>
