<svg width="1441" height="895" viewBox="0 0 1441 895" fill="none" xmlns="http://www.w3.org/2000/svg">
<g clip-path="url(#clip0)">
<path fill-rule="evenodd" clip-rule="evenodd" d="M1363 0H0V817.057C0.995338 817.019 1.99545 817 3 817C46.0782 817 81 851.922 81 895H1441V78C1397.92 78 1363 43.0782 1363 0Z" fill="#E3CACF"/>
<path d="M1065.5 253.732C1076.22 254.145 1085.22 257.084 1089.01 261.408C1092.06 264.834 1097.27 265.165 1100.7 262.15C1104.12 259.122 1104.45 253.894 1101.44 250.468C1094.46 242.544 1081.93 237.806 1066.16 237.202C1047.65 236.384 1030.86 241.627 1021.11 251.081C1016.41 255.647 1013.95 260.728 1013.99 265.772C1014.19 289.245 1062.84 289.34 1068.41 289.487C1094.39 289.26 1133.59 274.928 1133.41 253.879C1133.22 231.981 1105.01 216.034 1067.14 216C1046.55 216.187 1027.28 220.483 1012.86 228.129C996.715 236.697 987.891 248.731 988.001 262.036L988.568 327.896C988.746 348.881 996.699 368.557 1010.96 383.319C1024.2 397.023 1041.46 404.65 1059.89 405.698C1061.23 446.114 1079.7 482.219 1108.34 506.973C1108.72 507.328 1109.11 507.653 1109.49 508.009C1110.22 508.621 1110.95 509.234 1111.69 509.82C1144.16 538.502 1191.54 558.767 1253.35 561.596C1259.83 561.89 1266.07 562 1272.1 562C1355.95 562 1402.42 535.113 1426.97 511.646C1451.47 488.216 1465 458.27 1465 427.339C1465 422.8 1461.3 419.065 1456.73 419.065C1452.15 419.065 1448.45 422.8 1448.45 427.339C1448.45 453.322 1436.46 479.663 1415.53 499.67C1391.56 522.616 1344.14 549.087 1254.09 545.014C1239.71 544.368 1226.19 542.685 1213.51 540.166C1269.03 533.446 1312.28 486.677 1313.39 429.649C1315.65 430.7 1318.05 431.623 1320.67 432.364C1324.58 433.48 1328.25 434.031 1331.8 434.031C1350.79 434.031 1363.04 418.936 1377.74 392.886C1383.41 382.838 1391.2 373.632 1410.93 361.503C1413.49 359.904 1415.03 357.035 1414.83 354.005C1414.67 350.983 1412.86 348.283 1410.16 346.99C1408.56 346.23 1371.32 328.659 1337.07 328.659C1304.42 328.659 1290.09 344.447 1283.76 359.591C1268.94 345.789 1249.64 336.804 1228.24 335.116C1226.98 329.156 1224.1 323.627 1219.71 319.184C1207.58 306.856 1186.26 306.62 1173.87 318.764C1161.14 331.313 1160.96 351.86 1173.47 364.601C1179.63 370.856 1187.84 374.297 1196.61 374.297C1205.15 374.297 1213.21 371.009 1219.3 364.997C1223.06 361.295 1225.68 356.812 1227.26 351.921C1266.19 355.252 1296.92 387.603 1296.92 427.372C1296.92 480.956 1253.33 524.559 1199.72 524.559C1170.2 524.559 1143.08 514.119 1121.8 496.747C1092.74 470.81 1077.46 437.555 1076.37 404.751C1092.04 402.051 1106.48 394.488 1117.8 382.384C1131.8 367.381 1139.43 347.56 1139.25 326.578L1139.03 301.411C1139.01 298.631 1137.59 296.06 1135.26 294.543C1132.91 293.023 1129.98 292.79 1127.45 293.897C1126.8 294.179 1062.94 321.351 1024.04 295.141C1020.25 292.588 1015.1 293.563 1012.56 297.372C1010 301.159 1011 306.308 1014.79 308.86C1050.61 333.02 1100.34 320.802 1122.59 313.353L1122.7 326.726C1122.84 343.442 1116.81 359.199 1105.7 371.076C1094.71 382.859 1080.04 389.401 1064.43 389.518C1048.93 389.647 1034.02 383.358 1022.83 371.772C1011.53 360.088 1005.24 344.453 1005.09 327.721L1004.52 261.852C1004.47 255.138 1010.31 248.158 1020.6 242.709C1032.69 236.268 1049.26 232.658 1067.23 232.514C1095.57 232.321 1116.74 243.665 1116.84 253.989C1116.87 259.156 1093.81 272.694 1068.26 272.921C1046.32 272.639 1032.11 267.791 1030.52 265.827C1031.24 262.594 1043.23 252.834 1065.5 253.732ZM1207.72 353.196C1201.69 359.134 1191.25 359.055 1185.31 352.987C1179.18 346.767 1179.28 336.697 1185.5 330.556C1188.49 327.63 1192.42 326.024 1196.59 326.024C1200.9 326.024 1204.91 327.728 1207.93 330.792C1210.89 333.804 1212.5 337.812 1212.46 342.047C1212.43 346.261 1210.74 350.239 1207.72 353.196ZM1297.65 369.679C1302.79 353.211 1315.67 345.207 1337.09 345.207C1355.71 345.207 1376.04 351.397 1389.15 356.226C1377.36 365.027 1369.49 373.847 1363.3 384.79C1346.83 413.972 1339.36 420.487 1325.14 416.478C1318.72 414.652 1314.46 411.68 1312.45 407.622C1310.64 403.939 1310.74 399.882 1311.27 396.78C1321.06 373.436 1338.79 373.85 1339.73 373.914C1344.23 373.994 1348.22 370.801 1348.54 366.302C1348.9 361.755 1345.49 357.746 1340.94 357.4C1339.81 357.336 1316.96 355.914 1301.6 379.644C1300.89 379.249 1300.23 378.731 1299.68 377.987C1297.49 375.002 1297.34 370.77 1297.65 369.679Z" fill="#E3C19D"/>
<path d="M450.796 170.463C450.779 175.885 450.759 181.016 449.749 186.445C439.874 240.297 404.21 242.592 376.759 241.899C376.759 242.041 376.796 242.166 376.779 242.271C371.902 279.844 352.623 312.753 323.837 332.571C305.211 345.405 283.645 352 261.26 352C252.269 352 243.142 350.949 234.032 348.775C196.269 339.774 171.035 318.973 152.372 293.304C150.997 292.523 149.764 291.364 148.941 289.863C136.442 267.564 124.616 249.082 109.349 239.114C111.869 247.848 110.887 257.367 105.956 267.527C98.3869 283.231 85.8837 290.556 66.7023 290.556C57.755 290.556 46.8977 289.059 31.4854 285.722C15.6634 282.336 2.46598 283.745 -18.8186 290.144C-19.6787 290.414 -20.6033 290.536 -21.4973 290.536C-21.5549 290.536 -21.6226 290.536 -21.6768 290.536C-26.6076 290.803 -31 286.493 -31 281.409C-31 279.557 -30.5022 277.881 -29.5336 276.454C-24.6942 261.02 2.95026 180.699 55.1168 180.699C62.8111 180.699 70.6544 182.49 78.4231 185.992C84.5494 188.753 91.922 196.599 94.1199 206.222C94.7091 208.841 94.7633 211.427 94.5499 213.959C102.156 215.243 108.943 217.829 115.228 221.304C113.745 217.704 112.299 214.064 110.853 210.484C110.176 208.808 109.441 207.239 108.784 205.566C108.408 205.117 107.869 204.87 107.602 204.336C83.188 160.735 48.2726 144.852 9.32381 159.559C4.64359 161.368 -0.676745 158.981 -2.49871 154.266C-4.28343 149.561 -1.90942 144.284 2.80467 142.503C32.3964 131.295 60.5252 134.502 84.5257 150.801C62.3471 105.247 43.9548 79.3251 5.84243 76.097C0.840478 75.6779 -2.90849 71.2364 -2.49871 66.2203C-2.06862 61.2042 2.39491 57.3711 7.39686 57.8951C64.0608 62.7185 86.0802 110.23 111.618 165.255C117.318 177.562 122.55 190.538 127.816 203.66C127.87 203.802 127.921 203.944 127.979 204.048C132.283 178.106 147.14 157.027 171.875 142.902C171.445 140.745 171.178 138.535 171.161 136.307C171.073 126.762 174.713 117.744 181.446 110.943C194.802 97.3411 218.396 97.0809 232.095 110.476C246.159 124.318 246.356 146.982 232.532 161.019C225.728 167.918 216.656 171.714 206.967 171.714C197.539 171.714 188.625 168.087 181.893 161.482C181.198 160.79 180.694 160.002 180.054 159.275C147.424 178.437 137.139 212.303 150.855 255.545C169.108 290.624 193.769 320.321 238.238 330.945C264.921 337.236 291.638 332.443 313.417 317.452C337.444 300.876 353.69 273.317 358.278 241.659C357.743 241.659 357.252 241.659 356.727 241.679C353.361 241.804 349.87 241.909 346.297 241.909C320.366 241.909 289.443 235.582 280.404 186.347C279.405 180.922 279.388 175.787 279.368 170.365C279.314 154.411 279.25 136.321 251.222 102.773C249.17 100.312 248.554 96.9355 249.634 93.9036C250.687 90.8547 253.288 88.6103 256.438 87.9681C258.009 87.674 290.574 82.2725 322.069 99.0447C323.766 89.9015 326.675 82.1272 329.33 74.9884C334.793 60.3524 338.751 49.7827 331.43 32.7368C330.099 29.6338 330.59 26.0509 332.713 23.4211C334.83 20.7846 338.25 19.5002 341.528 20.1796C343.029 20.4568 378.124 27.3725 397.579 55.9177C405.883 68.0929 410.055 82.2016 410.055 98.0273C440.646 82.5835 472.141 87.674 473.658 87.9816C476.822 88.6238 479.399 90.8682 480.482 93.9002C481.553 96.9288 480.936 100.309 478.884 102.77C450.901 136.442 450.847 154.509 450.796 170.463ZM91.475 242.68C88.4745 235.318 80.0081 231.843 78.9379 231.451C67.7216 232.31 54.7917 236.552 39.4337 245.036C35.0041 247.53 29.4535 245.891 27.005 241.507C24.5565 237.086 26.1482 231.542 30.5609 229.102C47.917 219.455 62.9533 214.858 76.2795 213.574C76.5267 212.593 76.5639 211.596 76.3133 210.454C75.4396 206.479 72.0632 203.234 70.9219 202.7C65.4763 200.276 60.1493 199.029 55.0965 199.029C25.8976 199.029 3.48535 240.523 -7.37196 268.42C8.75484 265.05 21.0243 264.891 35.2953 267.973C72.263 275.907 82.1382 274.801 89.46 259.685C92.7077 253.003 93.368 247.297 91.475 242.68ZM194.772 148.564C201.433 155.114 212.958 155.016 219.534 148.324C226.294 141.462 226.186 130.365 219.311 123.591C216.016 120.356 211.667 118.592 207.062 118.592C202.31 118.592 197.864 120.492 194.542 123.841C191.236 127.167 189.489 131.589 189.526 136.257C189.557 140.908 191.433 145.295 194.772 148.564ZM404.783 122.969C401.762 125.268 397.647 125.508 394.413 123.503C391.172 121.506 389.513 117.747 390.227 113.995C398.521 70.53 371.476 51.1247 353.287 43.1509C355.261 58.0235 350.831 69.8776 346.517 81.4478C342.819 91.3583 338.978 101.617 338.907 114.816C338.89 118.247 336.933 121.384 333.844 122.919C330.756 124.487 327.058 124.139 324.318 122.08C307.29 109.435 289.369 105.781 276.127 105.156C297.584 135.628 297.656 155.412 297.71 170.359C297.727 175.135 297.747 179.279 298.441 183.112C305.316 220.614 325.872 223.755 346.358 223.755C349.714 223.755 353.009 223.646 356.189 223.542C359.304 223.433 362.295 223.329 365.119 223.329C367.933 223.329 370.931 223.417 374.039 223.542C396.55 224.218 423.785 226.787 431.777 183.132C432.475 179.299 432.491 175.165 432.508 170.379C432.563 155.432 432.617 135.648 454.064 105.176C440.48 105.832 422.078 109.662 404.783 122.969Z" fill="#E3C19D"/>
<path d="M569.796 734.514C612.409 702.491 698.379 786.026 628.296 843.514C576.376 886.102 509.296 806.014 536.796 765.014M543.296 698.017C484.796 545.514 695.796 538.514 643.796 698.017C768.796 569.514 859.296 773.014 695.796 790.517C867.296 818.014 749.796 1020.51 643.796 877.017C710.296 1050.51 471.796 1035.01 543.296 877.017C443.796 1022.51 309.296 820.514 494.796 790.517C305.796 767.516 440.796 563.016 543.296 698.017Z" stroke="#E3C19D" stroke-width="20" stroke-linecap="round" stroke-linejoin="round"/>
</g>
<defs>
<clipPath id="clip0">
<rect width="1441" height="895" fill="white"/>
</clipPath>
</defs>
</svg>
