<svg width="44" height="40" viewBox="0 0 44 40" fill="none" xmlns="http://www.w3.org/2000/svg">
<path d="M10 27L8.5 12H35L33 27H10Z" fill="#E3C19D"/>
<path fill-rule="evenodd" clip-rule="evenodd" d="M4.79639 4.18502L4.62731 4.16734C4.01201 4.14484 3.45945 4.57998 3.35152 5.20353L3.33384 5.37261C3.31135 5.98791 3.74648 6.54047 4.37004 6.6484L6.88505 7.08337L8.40926 25.2429L8.4408 25.5159C8.74747 27.5866 10.5285 29.1434 12.6499 29.1434H30.8365L31.1105 29.1347C33.1043 29.0073 34.7576 27.4995 35.0486 25.4964L36.6303 14.5657L36.6576 14.3147C36.8032 12.3162 35.22 10.5817 33.1815 10.5817H9.68671L9.2955 5.91216L9.26601 5.7274C9.15194 5.24686 8.7613 4.87126 8.26306 4.78502L4.79639 4.18502ZM12.4567 26.6329C11.6312 26.5425 10.9711 25.8796 10.9006 25.0345L9.89672 13.0817H33.1816L33.3285 13.0925C33.8547 13.1707 34.2349 13.6629 34.1561 14.2078L32.5744 25.1377L32.5348 25.3331C32.3342 26.0974 31.6418 26.6434 30.8366 26.6434H12.6499L12.4567 26.6329ZM9.8472 34.3089C9.8472 32.9154 10.9767 31.7839 12.3705 31.7839C13.7642 31.7839 14.8955 32.9152 14.8955 34.3089C14.8955 35.7028 13.764 36.8322 12.3705 36.8322C10.9768 36.8322 9.8472 35.7026 9.8472 34.3089ZM28.5995 34.3089C28.5995 32.9152 29.7308 31.7839 31.1245 31.7839C32.5182 31.7839 33.6495 32.9152 33.6495 34.3089C33.6495 35.7028 32.518 36.8322 31.1245 36.8322C29.731 36.8322 28.5995 35.7028 28.5995 34.3089ZM29.414 17.9917C29.414 17.3014 28.8544 16.7417 28.164 16.7417H23.5424L23.3728 16.7531C22.7626 16.8359 22.2924 17.3589 22.2924 17.9917C22.2924 18.6821 22.852 19.2417 23.5424 19.2417H28.164L28.3337 19.2303C28.9438 19.1475 29.414 18.6245 29.414 17.9917Z" fill="#4F635E"/>
<circle cx="36.5" cy="7.5" r="7.5" fill="#E3CACF"/>
<path d="M39.4383 3.54C39.6463 3.54 39.8063 3.6 39.9183 3.72C40.0303 3.832 40.0863 3.98 40.0863 4.164C40.0863 4.348 40.0303 4.54 39.9183 4.74L36.0903 11.688C35.9303 11.96 35.7103 12.096 35.4303 12.096C35.2383 12.096 35.0663 12.032 34.9143 11.904C34.7703 11.768 34.6983 11.604 34.6983 11.412C34.6983 11.276 34.7383 11.14 34.8183 11.004L38.2623 4.788H34.6383C34.1583 4.788 33.9183 4.584 33.9183 4.176C33.9183 3.752 34.1583 3.54 34.6383 3.54H39.4383Z" fill="black"/>
</svg>
