<svg width="40" height="40" viewBox="0 0 40 40" fill="none" xmlns="http://www.w3.org/2000/svg">
<path d="M19.9949 25.0266C13.166 25.0266 7.33301 26.1033 7.33301 30.4099C7.33301 34.7182 13.1296 35.8329 19.9949 35.8329C26.8238 35.8329 32.6568 34.7578 32.6568 30.4495C32.6568 26.1413 26.8618 25.0266 19.9949 25.0266Z" fill="#BFD9E3"/>
<path d="M19.995 20.9243C24.6468 20.9243 28.374 17.1955 28.374 12.5453C28.374 7.89501 24.6468 4.16626 19.995 4.16626C15.3447 4.16626 11.616 7.89501 11.616 12.5453C11.616 17.1955 15.3447 20.9243 19.995 20.9243Z" fill="#BFD9E3"/>
<path fill-rule="evenodd" clip-rule="evenodd" d="M20.0072 3.33325C15.1172 3.33325 11.153 7.31432 11.153 12.2252C11.153 17.1361 15.1172 21.1172 20.0072 21.1172C24.8973 21.1172 28.8614 17.1361 28.8614 12.2252C28.8614 7.31432 24.8973 3.33325 20.0072 3.33325ZM20.0072 5.74603C23.5704 5.74603 26.4589 8.64685 26.4589 12.2252C26.4589 15.8036 23.5704 18.7044 20.0072 18.7044C16.4441 18.7044 13.5556 15.8036 13.5556 12.2252C13.5556 8.64685 16.4441 5.74603 20.0072 5.74603ZM16.3835 24.7014C15.0873 24.7914 13.7771 24.9764 12.4847 25.2534C9.99037 25.7672 7.99484 26.7938 7.14548 28.4997C6.82513 29.1669 6.66406 29.8812 6.66678 30.6045C6.66582 31.3225 6.82558 32.0377 7.13444 32.692C7.94999 34.3784 9.71309 35.3327 12.0938 35.8617L12.5203 35.9507C13.7776 36.2344 15.0882 36.4253 16.4075 36.515C16.5199 36.5479 16.7877 36.5786 17.08 36.5935L17.3204 36.6025C17.4441 36.6054 17.5844 36.6061 17.7934 36.6061C19.6898 36.7104 21.6558 36.68 23.6126 36.5134C24.6554 36.4421 25.7052 36.3057 26.7463 36.1059L27.5252 35.9442C30.096 35.437 32.021 34.4726 32.8644 32.694C33.4897 31.3734 33.4897 29.8411 32.8647 28.5212C32.0234 26.747 30.1229 25.7906 27.5057 25.2514C26.4789 25.0322 25.4354 24.87 24.3845 24.7664L23.6163 24.7014C21.21 24.4891 18.7898 24.4891 16.3835 24.7014ZM23.406 27.1049L23.4272 27.1066C24.6332 27.1915 25.8319 27.3608 27.0145 27.6132C28.9586 28.0137 30.2779 28.6777 30.6953 29.5579C31.0095 30.2216 31.0095 30.9929 30.695 31.6572C30.305 32.4797 29.1201 33.1151 27.4076 33.5034L27.0326 33.5828C25.8267 33.8519 24.632 34.0253 23.4293 34.1078C21.5633 34.2665 19.7083 34.2951 17.858 34.195L17.202 34.1838C17.0199 34.1745 16.8664 34.1569 16.7242 34.1284C15.598 34.0434 14.5845 33.9089 13.6005 33.7138L13.013 33.5894C11.0629 33.2072 9.732 32.5404 9.30049 31.6482C9.14949 31.3282 9.06884 30.9671 9.06932 30.6015C9.06797 30.2379 9.14756 29.8849 9.30206 29.563C9.72163 28.7206 11.1321 27.995 12.9768 27.615C14.168 27.3597 15.3661 27.1905 16.5716 27.1067C18.8601 26.905 21.1396 26.905 23.406 27.1049Z" fill="#4F635E"/>
</svg>
